<?xml version="1.0" encoding="utf-8"?>
<!-- Generator: Adobe Illustrator 16.0.0, SVG Export Plug-In . SVG Version: 6.00 Build 0)  -->
<!DOCTYPE svg PUBLIC "-//W3C//DTD SVG 1.1//EN" "http://www.w3.org/Graphics/SVG/1.1/DTD/svg11.dtd">
<svg version="1.1" id="Layer_1" xmlns="http://www.w3.org/2000/svg" xmlns:xlink="http://www.w3.org/1999/xlink" x="0px" y="0px"
	 width="550px" height="75px" viewBox="0 0 550 75" enable-background="new 0 0 550 75" xml:space="preserve">
<g display="none">
	<g display="inline">
		<path fill="#33CC00" d="M163.468,56.785c-7.737,0-14.031-6.295-14.031-14.032c0-7.737,6.294-14.031,14.031-14.031
			c7.737,0,14.032,6.294,14.032,14.031C177.5,50.49,171.205,56.785,163.468,56.785z"/>
		<path fill="#0F0F19" d="M163.468,29.722c7.197,0,13.032,5.835,13.032,13.031s-5.835,13.032-13.032,13.032
			c-7.196,0-13.031-5.836-13.031-13.032S156.271,29.722,163.468,29.722 M163.468,27.722c-8.288,0-15.031,6.743-15.031,15.031
			c0,8.289,6.743,15.032,15.031,15.032c8.289,0,15.032-6.743,15.032-15.032C178.5,34.465,171.756,27.722,163.468,27.722
			L163.468,27.722z"/>
	</g>
	<g display="inline">
		<polygon fill="#F0F0F0" points="25.42,56.198 25.42,19.188 46.316,19.188 46.316,26.12 33.23,26.12 33.23,34.643 45.291,34.643 
			45.291,41.55 33.23,41.55 33.23,56.198 		"/>
		<path fill="#0F0F19" d="M45.316,20.188v4.932H32.23v10.522h12.061v4.907H32.23v14.648H26.42v-35.01H45.316 M47.316,18.188h-2
			H26.42h-2v2v35.01v2h2h5.811h2v-2V42.55h10.061h2v-2v-4.907v-2h-2H34.23V27.12h11.086h2v-2v-4.932V18.188L47.316,18.188z"/>
	</g>
	<g display="inline">
		<path fill="#F0F0F0" d="M49.907,56.198v-27h7.664v2.3c0.307-0.374,0.64-0.714,0.998-1.021c1.329-1.141,2.842-1.719,4.497-1.719
			c1.213,0,2.143,0.195,2.842,0.597l0.502,0.289v8.007l-1.618-1.271c-0.5-0.393-1.286-0.592-2.336-0.592
			c-1.354,0-2.464,0.61-3.396,1.866c-0.987,1.331-1.488,3.208-1.488,5.581v12.963H49.907z"/>
		<path fill="#0F0F19" d="M63.065,29.759c1.025,0,1.807,0.155,2.344,0.464v5.371c-0.684-0.537-1.669-0.806-2.954-0.806
			c-1.677,0-3.076,0.757-4.199,2.271s-1.685,3.572-1.685,6.177v11.963h-5.664v-25h5.664v5.151h0.098
			c0.553-1.758,1.403-3.129,2.551-4.113S61.649,29.759,63.065,29.759 M63.065,27.759c-1.632,0-3.141,0.486-4.494,1.448v-1.008h-2
			h-5.664h-2v2v25v2h2h5.664h2v-2V43.235c0-2.153,0.434-3.831,1.291-4.985c0.75-1.011,1.55-1.462,2.593-1.462
			c1.076,0,1.539,0.237,1.718,0.378l3.236,2.542v-4.115v-5.371v-1.158l-1.003-0.577C65.551,27.998,64.458,27.759,63.065,27.759
			L63.065,27.759z"/>
	</g>
	<g display="inline">
		<path fill="#F0F0F0" d="M79.154,56.784c-3.952,0-7.111-1.254-9.391-3.728c-2.257-2.451-3.401-5.903-3.401-10.261
			c0-4.135,1.253-7.564,3.726-10.194c2.489-2.647,5.622-3.99,9.311-3.99c3.708,0,6.634,1.227,8.696,3.647
			c2.021,2.374,3.046,5.672,3.046,9.804v3.173H74.179c0.203,1.539,0.774,2.727,1.734,3.611c1.179,1.087,2.791,1.615,4.926,1.615
			c2.444,0,4.721-0.742,6.767-2.206l1.582-1.132v7.063l-0.468,0.294C86.29,56.01,83.071,56.784,79.154,56.784z M83.618,39.232
			c-0.135-1.307-0.522-2.35-1.154-3.107c-0.751-0.9-1.778-1.338-3.138-1.338c-1.354,0-2.471,0.481-3.415,1.472
			c-0.75,0.789-1.285,1.785-1.598,2.974H83.618z"/>
		<path fill="#0F0F19" d="M79.398,29.612c3.418,0,6.063,1.099,7.935,3.296c1.871,2.197,2.808,5.249,2.808,9.155v2.173H73.1
			c0.064,2.312,0.776,4.094,2.136,5.347s3.227,1.88,5.604,1.88c2.669,0,5.118-0.797,7.349-2.393v4.565
			c-2.279,1.433-5.29,2.148-9.033,2.148c-3.679,0-6.563-1.136-8.655-3.405c-2.092-2.271-3.137-5.465-3.137-9.583
			c0-3.89,1.151-7.06,3.454-9.509S75.98,29.612,79.398,29.612 M73.1,40.232h11.572c-0.017-2.034-0.497-3.617-1.44-4.748
			c-0.944-1.131-2.246-1.697-3.906-1.697c-1.628,0-3.008,0.595-4.139,1.782C74.056,36.758,73.359,38.313,73.1,40.232 M79.398,27.612
			c-3.976,0-7.354,1.448-10.039,4.305c-2.652,2.821-3.997,6.481-3.997,10.879c0,4.616,1.233,8.297,3.666,10.938
			c2.478,2.688,5.884,4.051,10.126,4.051c4.108,0,7.505-0.826,10.098-2.455l0.936-0.588v-1.105V49.07v-2.834h1.953v-2v-2.173
			c0-4.376-1.105-7.892-3.285-10.452C86.595,28.958,83.413,27.612,79.398,27.612L79.398,27.612z M75.74,38.232
			c0.239-0.482,0.537-0.908,0.895-1.285c0.754-0.792,1.609-1.161,2.69-1.161c1.393,0,2.02,0.559,2.371,0.979
			c0.321,0.385,0.564,0.875,0.727,1.466H75.74L75.74,38.232z M75.42,46.236h13.292l-1.688,1.207c-1.899,1.359-3.922,2.02-6.185,2.02
			c-1.873,0-3.262-0.441-4.248-1.351C76.056,47.619,75.667,46.998,75.42,46.236L75.42,46.236z"/>
	</g>
	<g display="inline">
		<path fill="#F0F0F0" d="M105.717,56.784c-3.952,0-7.111-1.254-9.39-3.728c-2.258-2.452-3.402-5.903-3.402-10.261
			c0-4.135,1.253-7.564,3.726-10.194c2.49-2.647,5.623-3.99,9.311-3.99c3.708,0,6.634,1.227,8.696,3.647
			c2.021,2.374,3.046,5.672,3.046,9.804v3.173h-16.962c0.203,1.539,0.775,2.727,1.735,3.611c1.178,1.087,2.789,1.615,4.925,1.615
			c2.444,0,4.721-0.742,6.767-2.206l1.582-1.132v7.063l-0.468,0.294C112.852,56.01,109.634,56.784,105.717,56.784z M110.18,39.232
			c-0.135-1.307-0.522-2.35-1.154-3.107c-0.751-0.9-1.778-1.338-3.138-1.338c-1.354,0-2.47,0.481-3.414,1.472
			c-0.75,0.789-1.286,1.785-1.599,2.974H110.18z"/>
		<path fill="#0F0F19" d="M105.961,29.612c3.418,0,6.063,1.099,7.935,3.296c1.871,2.197,2.808,5.249,2.808,9.155v2.173H99.662
			c0.064,2.312,0.777,4.094,2.137,5.347c1.358,1.253,3.226,1.88,5.603,1.88c2.669,0,5.118-0.797,7.349-2.393v4.565
			c-2.279,1.433-5.29,2.148-9.033,2.148c-3.679,0-6.563-1.136-8.654-3.405c-2.092-2.271-3.138-5.465-3.138-9.583
			c0-3.89,1.151-7.06,3.454-9.509C99.683,30.838,102.543,29.612,105.961,29.612 M99.662,40.232h11.572
			c-0.017-2.034-0.497-3.617-1.44-4.748c-0.944-1.131-2.246-1.697-3.906-1.697c-1.628,0-3.007,0.595-4.138,1.782
			C100.618,36.758,99.922,38.313,99.662,40.232 M105.961,27.612c-3.975,0-7.352,1.448-10.039,4.305
			c-2.652,2.821-3.997,6.481-3.997,10.879c0,4.616,1.233,8.296,3.667,10.938c2.476,2.688,5.883,4.051,10.125,4.051
			c4.108,0,7.505-0.826,10.098-2.455l0.936-0.588v-1.105V49.07v-2.834h1.953v-2v-2.173c0-4.376-1.105-7.892-3.285-10.452
			C113.157,28.958,109.976,27.612,105.961,27.612L105.961,27.612z M102.303,38.232c0.24-0.481,0.538-0.908,0.896-1.284
			c0.755-0.792,1.609-1.162,2.689-1.162c1.393,0,2.02,0.559,2.371,0.979c0.321,0.385,0.564,0.875,0.727,1.466H102.303
			L102.303,38.232z M101.983,46.236h13.291l-1.688,1.207c-1.899,1.359-3.922,2.02-6.185,2.02c-1.873,0-3.262-0.441-4.247-1.35
			C102.619,47.619,102.23,46.998,101.983,46.236L101.983,46.236z"/>
	</g>
	<g display="inline">
		<path fill="#F0F0F0" d="M130.644,56.784c-3.375,0-6.12-1.252-8.157-3.72c-1.99-2.412-3-5.703-3-9.78
			c0-4.352,1.107-7.908,3.29-10.571c2.233-2.721,5.241-4.101,8.94-4.101c2.646,0,4.803,0.768,6.446,2.288V17.187h7.664v39.012
			h-7.664v-2.364C136.251,55.794,133.732,56.784,130.644,56.784z M133.085,35.129c-1.804,0-3.178,0.647-4.2,1.978
			c-1.069,1.393-1.611,3.397-1.611,5.958c0,2.297,0.515,4.112,1.531,5.397c0.972,1.231,2.252,1.83,3.915,1.83
			c1.642,0,2.934-0.583,3.949-1.782c1.056-1.249,1.57-2.799,1.57-4.737v-3.271c0-1.524-0.479-2.779-1.464-3.834
			C135.805,35.632,134.599,35.129,133.085,35.129z"/>
		<path fill="#0F0F19" d="M144.828,18.187v37.012h-5.664V50.95h-0.098c-1.823,3.223-4.631,4.834-8.423,4.834
			c-3.076,0-5.538-1.118-7.386-3.356c-1.847-2.238-2.771-5.286-2.771-9.144c0-4.134,1.021-7.446,3.063-9.937
			c2.043-2.49,4.765-3.735,8.167-3.735c3.369,0,5.818,1.352,7.349,4.053h0.098V18.187H144.828 M132.719,51.292
			c1.937,0,3.507-0.712,4.712-2.136c1.204-1.424,1.807-3.219,1.807-5.384v-3.271c0-1.774-0.578-3.279-1.733-4.517
			c-1.156-1.236-2.629-1.855-4.419-1.855c-2.116,0-3.78,0.79-4.993,2.368c-1.212,1.579-1.818,3.769-1.818,6.567
			c0,2.539,0.582,4.545,1.746,6.018C129.183,50.556,130.749,51.292,132.719,51.292 M146.828,16.187h-2h-5.664h-2v2v10.762
			c-1.546-0.882-3.376-1.336-5.446-1.336c-4.014,0-7.282,1.503-9.713,4.467c-2.334,2.846-3.517,6.616-3.517,11.205
			c0,4.315,1.086,7.82,3.228,10.416c2.237,2.71,5.241,4.084,8.928,4.084c2.496,0,4.691-0.626,6.521-1.842v1.256h2h5.664h2v-2V18.187
			V16.187L146.828,16.187z M132.719,49.292c-1.354,0-2.349-0.46-3.129-1.449c-0.874-1.104-1.316-2.712-1.316-4.778
			c0-2.335,0.473-4.135,1.405-5.35c0.832-1.082,1.914-1.586,3.407-1.586c1.239,0,2.179,0.388,2.958,1.222
			c0.803,0.86,1.194,1.891,1.194,3.15v3.271c0,1.692-0.437,3.031-1.334,4.093C135.08,48.838,134.067,49.292,132.719,49.292
			L132.719,49.292z"/>
	</g>
	<g display="inline">
		<path fill="#F0F0F0" d="M212.798,56.198V41.575c0-2.416-0.322-4.15-0.957-5.154c-0.549-0.87-1.499-1.292-2.902-1.292
			c-1.144,0-2.109,0.587-2.953,1.794c-0.921,1.321-1.37,2.875-1.37,4.75v14.525h-7.688V41.111c0-5.362-2.244-5.982-3.932-5.982
			c-1.195,0-2.161,0.548-2.954,1.675c-0.859,1.222-1.295,2.86-1.295,4.869v14.525h-7.664v-27h7.664v2.158
			c1.833-1.823,4.171-2.744,6.983-2.744c1.934,0,3.657,0.546,5.122,1.623c0.917,0.675,1.657,1.489,2.213,2.433
			c1.992-2.693,4.724-4.056,8.144-4.056c4.221,0,9.252,1.94,9.252,11.181v16.405H212.798z"/>
		<path fill="#0F0F19" d="M211.21,29.612c5.501,0,8.252,3.394,8.252,10.181v15.405h-5.664V41.575c0-2.62-0.37-4.517-1.111-5.688
			c-0.74-1.172-1.989-1.758-3.747-1.758c-1.481,0-2.738,0.741-3.772,2.222c-1.033,1.481-1.55,3.255-1.55,5.322v13.525h-5.688V41.111
			c0-4.654-1.645-6.982-4.932-6.982c-1.53,0-2.787,0.7-3.771,2.1c-0.985,1.4-1.478,3.215-1.478,5.444v13.525h-5.664v-25h5.664v3.955
			h0.098c1.807-3.027,4.435-4.541,7.886-4.541c1.725,0,3.234,0.477,4.529,1.429c1.293,0.952,2.176,2.201,2.648,3.747
			C204.765,31.338,207.531,29.612,211.21,29.612 M211.21,27.612c-3.236,0-5.977,1.17-8.072,3.416
			c-0.485-0.591-1.049-1.125-1.691-1.597c-1.641-1.207-3.564-1.818-5.715-1.818c-2.255,0-4.269,0.569-5.983,1.673v-1.087h-2h-5.664
			h-2v2v25v2h2h5.664h2v-2V41.673c0-1.799,0.375-3.243,1.113-4.293c0.78-1.108,1.551-1.25,2.136-1.25c0.952,0,2.932,0,2.932,4.982
			v14.087v2h2h5.688h2v-2V41.673c0-1.663,0.389-3.03,1.19-4.178c0.855-1.224,1.626-1.366,2.132-1.366c1.535,0,1.9,0.579,2.056,0.826
			c0.3,0.475,0.802,1.704,0.802,4.621v13.623v2h2h5.664h2v-2V39.793C221.462,29.195,215.039,27.612,211.21,27.612L211.21,27.612z"/>
	</g>
</g>
<g display="none">
	<g display="inline">
		<path fill="#33CC00" d="M345.5,56.785c-7.737,0-14.031-6.295-14.031-14.032c0-7.737,6.294-14.031,14.031-14.031
			s14.031,6.294,14.031,14.031C359.531,50.49,353.237,56.785,345.5,56.785z"/>
		<path fill="#0F0F19" d="M345.5,29.722c7.195,0,13.031,5.835,13.031,13.031s-5.836,13.032-13.031,13.032
			c-7.197,0-13.031-5.836-13.031-13.032S338.303,29.722,345.5,29.722 M345.5,27.722c-8.288,0-15.031,6.743-15.031,15.031
			c0,8.289,6.743,15.032,15.031,15.032s15.031-6.743,15.031-15.032C360.531,34.465,353.788,27.722,345.5,27.722L345.5,27.722z"/>
	</g>
	<g display="inline">
		<path fill="#F0F0F0" d="M287.887,56.784c-5.428,0-9.896-1.726-13.281-5.129c-3.384-3.4-5.101-7.942-5.101-13.498
			c0-5.671,1.87-10.399,5.557-14.052c3.686-3.651,8.42-5.502,14.071-5.502c4.005,0,7.44,0.602,10.209,1.79l0.605,0.26v8.509
			l-1.555-1.036c-2.506-1.67-5.548-2.518-9.041-2.518c-3.478,0-6.24,1.106-8.448,3.383c-2.218,2.286-3.296,5.181-3.296,8.85
			c0,3.749,0.95,6.716,2.823,8.819c1.869,2.1,4.355,3.12,7.603,3.12c1.991,0,3.754-0.342,5.25-1.016v-6.701h-7.373V35.18h15.16
			v18.22l-0.521,0.284C296.771,55.741,292.51,56.784,287.887,56.784z"/>
		<path fill="#0F0F19" d="M289.133,19.603c3.889,0,7.16,0.57,9.814,1.709v5.981c-2.686-1.79-5.885-2.686-9.596-2.686
			c-3.727,0-6.783,1.229-9.166,3.687c-2.385,2.458-3.578,5.64-3.578,9.546c0,4.021,1.025,7.182,3.076,9.484
			c2.051,2.304,4.834,3.455,8.35,3.455c2.408,0,4.492-0.464,6.25-1.392v-8.325h-7.373V36.18h13.16v16.626
			c-3.646,1.985-7.707,2.979-12.184,2.979c-5.176,0-9.367-1.611-12.572-4.834c-3.207-3.223-4.81-7.487-4.81-12.793
			c0-5.42,1.754-9.867,5.261-13.342C279.273,21.341,283.729,19.603,289.133,19.603 M289.133,17.603
			c-5.924,0-10.895,1.949-14.774,5.792c-3.884,3.848-5.854,8.815-5.854,14.763c0,5.83,1.814,10.608,5.392,14.204
			c3.579,3.598,8.286,5.423,13.99,5.423c4.792,0,9.213-1.084,13.14-3.222l1.044-0.568v-1.188V36.18v-2h-2h-13.16h-2v2v4.883v2h2
			h5.373v5.03c-1.236,0.456-2.66,0.687-4.25,0.687c-2.945,0-5.188-0.911-6.855-2.785c-1.706-1.915-2.57-4.658-2.57-8.154
			c0-3.396,0.985-6.063,3.014-8.153c2.01-2.072,4.538-3.079,7.73-3.079c3.292,0,6.147,0.791,8.486,2.35l3.109,2.073v-3.737v-5.981
			v-1.318l-1.212-0.52C296.842,18.232,293.274,17.603,289.133,17.603L289.133,17.603z"/>
	</g>
	<g display="inline">
		<path fill="#F0F0F0" d="M317.16,56.784c-3.953,0-7.112-1.254-9.39-3.728c-2.259-2.452-3.403-5.904-3.403-10.261
			c0-4.134,1.254-7.564,3.727-10.194c2.489-2.647,5.622-3.99,9.311-3.99c3.708,0,6.634,1.227,8.695,3.647
			c2.021,2.375,3.047,5.673,3.047,9.804v3.173h-16.962c0.203,1.539,0.775,2.727,1.735,3.611c1.161,1.072,2.817,1.615,4.924,1.615
			c2.444,0,4.722-0.742,6.768-2.206l1.582-1.132v7.063l-0.468,0.294C324.296,56.01,321.077,56.784,317.16,56.784z M321.623,39.232
			c-0.136-1.307-0.522-2.35-1.154-3.107c-0.751-0.9-1.778-1.338-3.139-1.338c-1.354,0-2.47,0.481-3.412,1.472
			c-0.764,0.801-1.292,1.78-1.602,2.974H321.623z"/>
		<path fill="#0F0F19" d="M317.404,29.612c3.418,0,6.063,1.099,7.934,3.296s2.809,5.249,2.809,9.155v2.173h-17.041
			c0.064,2.312,0.777,4.094,2.137,5.347c1.357,1.253,3.225,1.88,5.602,1.88c2.67,0,5.119-0.797,7.35-2.393v4.565
			c-2.279,1.433-5.291,2.148-9.033,2.148c-3.68,0-6.564-1.136-8.654-3.405c-2.092-2.271-3.139-5.465-3.139-9.583
			c0-3.89,1.152-7.06,3.455-9.509S313.986,29.612,317.404,29.612 M311.105,40.232h11.572c-0.018-2.034-0.498-3.617-1.441-4.748
			s-2.246-1.697-3.906-1.697c-1.627,0-3.006,0.595-4.137,1.782C312.061,36.758,311.365,38.313,311.105,40.232 M317.404,27.612
			c-3.976,0-7.354,1.448-10.039,4.305c-2.653,2.822-3.998,6.481-3.998,10.879c0,4.615,1.234,8.295,3.667,10.938
			c2.476,2.688,5.882,4.051,10.126,4.051c4.108,0,7.506-0.826,10.098-2.455l0.936-0.588v-1.105V49.07v-2.834h1.953v-2v-2.173
			c0-4.375-1.105-7.892-3.286-10.452C324.601,28.958,321.419,27.612,317.404,27.612L317.404,27.612z M313.746,38.232
			c0.239-0.481,0.537-0.908,0.895-1.283c0.756-0.793,1.61-1.162,2.689-1.162c1.394,0,2.021,0.559,2.37,0.979
			c0.321,0.385,0.564,0.875,0.728,1.467H313.746L313.746,38.232z M313.427,46.236h13.291l-1.688,1.207
			c-1.898,1.359-3.922,2.02-6.186,2.02c-1.873,0-3.262-0.441-4.245-1.35C314.063,47.619,313.674,46.998,313.427,46.236
			L313.427,46.236z"/>
	</g>
	<g display="inline">
		<path fill="#F0F0F0" d="M394.113,56.198V41.575c0-2.418-0.321-4.152-0.956-5.153c-0.55-0.871-1.499-1.293-2.901-1.293
			c-1.144,0-2.109,0.587-2.954,1.795c-0.92,1.319-1.368,2.873-1.368,4.749v14.525h-7.689V41.111c0-5.362-2.244-5.982-3.932-5.982
			c-1.194,0-2.161,0.548-2.953,1.675c-0.859,1.222-1.295,2.86-1.295,4.869v14.525H362.4v-27h7.664v2.158
			c1.833-1.823,4.171-2.744,6.982-2.744c1.934,0,3.657,0.546,5.122,1.623c0.916,0.675,1.656,1.489,2.213,2.433
			c1.992-2.693,4.724-4.056,8.144-4.056c4.221,0,9.252,1.94,9.252,11.181v16.405H394.113z"/>
		<path fill="#0F0F19" d="M392.525,29.612c5.502,0,8.252,3.394,8.252,10.181v15.405h-5.664V41.575c0-2.62-0.369-4.517-1.111-5.688
			c-0.74-1.172-1.988-1.758-3.746-1.758c-1.482,0-2.738,0.741-3.773,2.222c-1.033,1.481-1.549,3.255-1.549,5.322v13.525h-5.689
			V41.111c0-4.654-1.645-6.982-4.932-6.982c-1.529,0-2.787,0.7-3.771,2.1c-0.984,1.4-1.477,3.215-1.477,5.444v13.525H363.4v-25
			h5.664v3.955h0.098c1.807-3.027,4.434-4.541,7.885-4.541c1.725,0,3.234,0.477,4.529,1.429c1.293,0.952,2.176,2.201,2.648,3.747
			C386.08,31.338,388.848,29.612,392.525,29.612 M392.525,27.612c-3.236,0-5.977,1.17-8.072,3.416
			c-0.485-0.591-1.049-1.125-1.691-1.597c-1.641-1.207-3.563-1.818-5.715-1.818c-2.255,0-4.269,0.569-5.982,1.673v-1.087h-2H363.4
			h-2v2v25v2h2h5.664h2v-2V41.673c0-1.799,0.374-3.244,1.112-4.294c0.779-1.107,1.551-1.25,2.136-1.25c0.951,0,2.932,0,2.932,4.982
			v14.087v2h2h5.689h2v-2V41.673c0-1.664,0.389-3.03,1.189-4.178c0.846-1.21,1.584-1.366,2.133-1.366
			c1.533,0,1.899,0.579,2.055,0.826c0.301,0.475,0.803,1.703,0.803,4.621v13.623v2h2h5.664h2v-2V39.793
			C402.777,29.195,396.354,27.612,392.525,27.612L392.525,27.612z"/>
	</g>
	<g display="inline">
		<path fill="#F0F0F0" d="M417.867,56.784c-3.951,0-7.11-1.254-9.39-3.728c-2.257-2.451-3.401-5.903-3.401-10.261
			c0-4.136,1.253-7.565,3.725-10.194c2.491-2.647,5.624-3.99,9.311-3.99c3.708,0,6.634,1.227,8.696,3.647
			c2.021,2.374,3.046,5.672,3.046,9.804v3.173h-16.962c0.203,1.539,0.775,2.727,1.735,3.611c1.179,1.087,2.79,1.615,4.926,1.615
			c2.443,0,4.72-0.742,6.766-2.206l1.582-1.132v7.063l-0.468,0.294C425.003,56.01,421.784,56.784,417.867,56.784z M422.331,39.232
			c-0.135-1.307-0.521-2.349-1.153-3.107c-0.753-0.9-1.779-1.338-3.139-1.338c-1.354,0-2.472,0.481-3.414,1.472
			c-0.751,0.789-1.286,1.786-1.599,2.974H422.331z"/>
		<path fill="#0F0F19" d="M418.111,29.612c3.418,0,6.063,1.099,7.936,3.296c1.871,2.197,2.807,5.249,2.807,9.155v2.173h-17.041
			c0.064,2.312,0.777,4.094,2.137,5.347s3.227,1.88,5.604,1.88c2.668,0,5.117-0.797,7.348-2.393v4.565
			c-2.279,1.433-5.289,2.148-9.033,2.148c-3.678,0-6.563-1.136-8.654-3.405c-2.092-2.271-3.137-5.465-3.137-9.583
			c0-3.89,1.15-7.06,3.453-9.509C411.834,30.838,414.693,29.612,418.111,29.612 M411.813,40.232h11.572
			c-0.016-2.034-0.496-3.617-1.439-4.748c-0.945-1.131-2.246-1.697-3.906-1.697c-1.629,0-3.008,0.595-4.139,1.782
			C412.77,36.758,412.072,38.313,411.813,40.232 M418.111,27.612c-3.974,0-7.351,1.448-10.039,4.304
			c-2.651,2.821-3.996,6.481-3.996,10.879c0,4.616,1.233,8.297,3.666,10.938c2.477,2.688,5.884,4.051,10.125,4.051
			c4.108,0,7.506-0.826,10.098-2.455l0.936-0.588v-1.105V49.07v-2.834h1.953v-2v-2.173c0-4.376-1.104-7.893-3.284-10.452
			C425.308,28.958,422.125,27.612,418.111,27.612L418.111,27.612z M414.453,38.232c0.24-0.481,0.538-0.908,0.896-1.285
			c0.754-0.792,1.608-1.161,2.689-1.161c1.392,0,2.021,0.559,2.372,0.98c0.32,0.384,0.563,0.875,0.726,1.465H414.453L414.453,38.232
			z M414.134,46.236h13.291l-1.688,1.207c-1.898,1.359-3.922,2.02-6.184,2.02c-1.873,0-3.262-0.441-4.248-1.351
			C414.77,47.619,414.38,46.998,414.134,46.236L414.134,46.236z"/>
	</g>
	<g display="inline">
		<path fill="#F0F0F0" d="M443.063,56.76c-5.414,0-8.275-2.761-8.275-7.982V35.642h-4.174v-6.443h4.174v-5.542l7.664-2.18v7.722
			h5.982v6.443h-5.982v11.5c0,1.532,0.31,2.221,0.57,2.528c0.336,0.396,0.982,0.598,1.922,0.598c0.734,0,1.347-0.201,1.87-0.615
			l1.62-1.278v7.174l-0.554,0.276C446.637,56.445,445.016,56.76,443.063,56.76z"/>
		<path fill="#0F0F19" d="M441.451,22.801v7.397h5.982v4.443h-5.982v12.5c0,1.481,0.27,2.539,0.807,3.174s1.432,0.952,2.686,0.952
			c0.959,0,1.789-0.276,2.49-0.83v4.492c-1.107,0.553-2.564,0.83-4.371,0.83c-4.85,0-7.275-2.327-7.275-6.982V34.642h-4.174v-4.443
			h4.174v-5.786L441.451,22.801 M443.451,20.152l-2.547,0.725l-5.664,1.611l-1.453,0.414v1.51v3.786h-2.174h-2v2v4.443v2h2h2.174
			v12.136c0,5.792,3.294,8.982,9.275,8.982c2.14,0,3.861-0.341,5.265-1.041l1.106-0.552V54.93v-4.492V46.31l-3.239,2.559
			c-0.346,0.272-0.743,0.399-1.251,0.399c-0.753,0-1.087-0.159-1.159-0.244c-0.014-0.016-0.333-0.411-0.333-1.882v-10.5h3.982h2v-2
			v-4.443v-2h-2h-3.982v-5.397V20.152L443.451,20.152z"/>
	</g>
	<g display="inline">
		<path fill="#F0F0F0" d="M451.316,56.198v-27h7.664v2.3c0.307-0.374,0.64-0.714,0.998-1.021c1.327-1.14,2.841-1.718,4.496-1.718
			c1.213,0,2.143,0.195,2.842,0.597l0.502,0.289v8.007L466.2,36.38c-0.5-0.393-1.286-0.592-2.337-0.592
			c-1.354,0-2.464,0.61-3.396,1.866c-0.986,1.33-1.486,3.207-1.486,5.581v12.963H451.316z"/>
		<path fill="#0F0F19" d="M464.475,29.759c1.025,0,1.807,0.155,2.344,0.464v5.371c-0.684-0.537-1.67-0.806-2.955-0.806
			c-1.676,0-3.076,0.757-4.199,2.271s-1.684,3.572-1.684,6.177v11.963h-5.664v-25h5.664v5.151h0.098
			c0.553-1.758,1.402-3.129,2.551-4.113C461.775,30.252,463.059,29.759,464.475,29.759 M464.475,27.759
			c-1.633,0-3.142,0.486-4.494,1.448v-1.008h-2h-5.664h-2v2v25v2h2h5.664h2v-2V43.235c0-2.154,0.434-3.832,1.29-4.985
			c0.972-1.311,1.945-1.462,2.593-1.462c1.077,0,1.54,0.237,1.72,0.378l3.235,2.542v-4.115v-5.371v-1.158l-1.004-0.577
			C466.96,27.998,465.867,27.759,464.475,27.759L464.475,27.759z"/>
	</g>
	<g display="inline">
		<path fill="#F0F0F0" d="M469.822,56.198v-27h7.664v27H469.822z M473.678,25.949c-1.181,0-2.208-0.392-3.055-1.165
			c-0.872-0.797-1.314-1.818-1.314-3.034c0-1.209,0.438-2.234,1.303-3.048c0.851-0.796,1.882-1.199,3.066-1.199
			c1.215,0,2.265,0.402,3.121,1.194c0.877,0.813,1.322,1.841,1.322,3.053c0,1.162-0.443,2.167-1.317,2.988
			C475.948,25.542,474.896,25.949,473.678,25.949z"/>
		<path fill="#0F0F19" d="M473.678,18.504c0.961,0,1.773,0.31,2.441,0.928c0.668,0.619,1.002,1.392,1.002,2.319
			c0,0.879-0.334,1.632-1.002,2.259s-1.48,0.939-2.441,0.939c-0.928,0-1.721-0.301-2.381-0.903
			c-0.658-0.602-0.988-1.367-0.988-2.295s0.33-1.7,0.988-2.319C471.957,18.813,472.75,18.504,473.678,18.504 M476.486,30.198v25
			h-5.664v-25H476.486 M473.678,16.504c-1.427,0-2.723,0.508-3.748,1.468c-1.062,0.999-1.621,2.305-1.621,3.779
			c0,1.487,0.566,2.791,1.639,3.771c1.023,0.934,2.313,1.427,3.73,1.427c1.46,0,2.777-0.512,3.811-1.481
			c1.068-1.003,1.633-2.289,1.633-3.717c0-1.481-0.568-2.79-1.643-3.786C476.445,17.009,475.132,16.504,473.678,16.504
			L473.678,16.504z M478.486,28.198h-2h-5.664h-2v2v25v2h2h5.664h2v-2v-25V28.198L478.486,28.198z"/>
	</g>
	<g display="inline">
		<path fill="#F0F0F0" d="M494.674,56.784c-3.972,0-7.234-1.271-9.698-3.778c-2.458-2.501-3.704-5.771-3.704-9.722
			c0-4.37,1.333-7.945,3.962-10.624c2.634-2.686,6.18-4.048,10.54-4.048c2.41,0,4.578,0.433,6.445,1.287l0.584,0.267v7.911
			l-1.599-1.194c-1.58-1.181-3.205-1.754-4.968-1.754c-2.124,0-3.811,0.692-5.156,2.116c-1.36,1.438-2.021,3.294-2.021,5.673
			c0,2.341,0.615,4.118,1.881,5.435c1.256,1.305,2.918,1.939,5.078,1.939c1.817,0,3.498-0.639,5.136-1.953l1.626-1.304v7.593
			l-0.5,0.289C500.132,56.156,497.573,56.784,494.674,56.784z"/>
		<path fill="#0F0F19" d="M495.773,29.612c2.277,0,4.287,0.399,6.029,1.196v5.273c-1.742-1.302-3.598-1.953-5.566-1.953
			c-2.393,0-4.354,0.811-5.883,2.43c-1.531,1.619-2.295,3.739-2.295,6.359c0,2.588,0.721,4.631,2.16,6.128
			c1.441,1.497,3.373,2.246,5.799,2.246c2.033,0,3.955-0.724,5.762-2.173v4.932c-2.002,1.155-4.371,1.733-7.105,1.733
			c-3.711,0-6.705-1.159-8.984-3.479c-2.279-2.318-3.418-5.326-3.418-9.021c0-4.118,1.225-7.426,3.676-9.924
			C488.396,30.862,491.672,29.612,495.773,29.612 M495.773,27.612c-4.639,0-8.426,1.463-11.254,4.348
			c-2.818,2.873-4.248,6.683-4.248,11.324c0,4.222,1.343,7.729,3.992,10.423c2.657,2.705,6.16,4.077,10.41,4.077
			c3.077,0,5.804-0.673,8.105-2.001l1-0.577v-1.155v-4.932v-4.168l-3.251,2.607c-1.454,1.167-2.93,1.733-4.511,1.733
			c-1.874,0-3.3-0.534-4.358-1.633c-1.076-1.12-1.601-2.672-1.601-4.741c0-2.11,0.572-3.741,1.748-4.985
			c1.146-1.214,2.596-1.804,4.43-1.804c1.539,0,2.969,0.509,4.369,1.555l3.197,2.389v-3.991v-5.273v-1.285l-1.168-0.534
			C500.637,28.076,498.328,27.612,495.773,27.612L495.773,27.612z"/>
	</g>
	<g display="inline">
		<path fill="#F0F0F0" d="M512.936,56.784c-2.864,0-5.394-0.49-7.518-1.457l-0.586-0.267v-7.911l1.606,1.223
			c1.954,1.489,4.047,2.213,6.399,2.213c4.127,0,4.127-1.526,4.127-2.027c0-0.354-0.08-0.636-0.245-0.859
			c-0.217-0.295-0.521-0.566-0.907-0.807c-0.436-0.271-0.964-0.52-1.568-0.738c-0.679-0.245-1.434-0.522-2.268-0.834
			c-1.077-0.426-2.049-0.88-2.907-1.356c-0.91-0.505-1.682-1.09-2.293-1.738c-0.636-0.674-1.121-1.448-1.44-2.3
			c-0.318-0.84-0.48-1.821-0.48-2.915c0-1.387,0.338-2.636,1.006-3.712c0.642-1.039,1.516-1.924,2.598-2.63
			c1.044-0.682,2.243-1.203,3.566-1.546c1.299-0.337,2.656-0.509,4.035-0.509c2.422,0,4.629,0.375,6.56,1.116l0.642,0.246v7.541
			l-1.565-1.072c-1.603-1.098-3.398-1.632-5.489-1.632c-0.63,0-1.2,0.063-1.695,0.189c-0.471,0.12-0.869,0.283-1.184,0.483
			c-0.278,0.179-0.494,0.389-0.64,0.624c-0.131,0.208-0.192,0.43-0.192,0.682c0,0.349,0.065,0.634,0.195,0.846
			c0.147,0.243,0.381,0.467,0.695,0.668c0.386,0.244,0.867,0.477,1.428,0.688c0.617,0.232,1.327,0.484,2.13,0.757
			c1.146,0.468,2.15,0.934,3.041,1.407c0.933,0.498,1.742,1.073,2.407,1.712c0.697,0.669,1.24,1.452,1.618,2.328
			s0.569,1.917,0.569,3.093c0,1.453-0.347,2.748-1.029,3.848c-0.663,1.069-1.558,1.965-2.658,2.661
			c-1.064,0.675-2.305,1.183-3.687,1.508C515.856,56.623,514.42,56.784,512.936,56.784z"/>
		<path fill="#0F0F19" d="M516.061,29.612c2.311,0,4.379,0.351,6.201,1.05v4.956c-1.758-1.204-3.775-1.807-6.055-1.807
			c-0.717,0-1.363,0.073-1.941,0.22c-0.576,0.146-1.07,0.351-1.477,0.61c-0.406,0.261-0.725,0.574-0.951,0.94
			c-0.229,0.365-0.342,0.769-0.342,1.208c0,0.537,0.113,0.993,0.342,1.367c0.227,0.374,0.564,0.704,1.012,0.989
			c0.449,0.285,0.986,0.545,1.611,0.781c0.627,0.236,1.348,0.492,2.162,0.769c1.074,0.439,2.037,0.888,2.893,1.343
			c0.854,0.456,1.582,0.973,2.186,1.551c0.602,0.578,1.064,1.244,1.391,2.002c0.326,0.756,0.488,1.656,0.488,2.697
			c0,1.27-0.293,2.377-0.879,3.32c-0.586,0.944-1.367,1.726-2.344,2.344c-0.977,0.619-2.104,1.078-3.381,1.379
			s-2.625,0.452-4.041,0.452c-2.734,0-5.102-0.456-7.104-1.367v-5.249c2.115,1.611,4.451,2.417,7.006,2.417
			c3.418,0,5.127-1.009,5.127-3.027c0-0.569-0.146-1.054-0.439-1.452s-0.688-0.753-1.184-1.063c-0.496-0.309-1.082-0.586-1.758-0.83
			s-1.428-0.521-2.258-0.83c-1.025-0.406-1.949-0.838-2.771-1.294s-1.506-0.972-2.051-1.55s-0.957-1.233-1.232-1.966
			c-0.277-0.732-0.416-1.587-0.416-2.563c0-1.204,0.285-2.266,0.855-3.186c0.568-0.92,1.334-1.692,2.295-2.319
			c0.959-0.627,2.051-1.099,3.271-1.416S514.758,29.612,516.061,29.612 M516.061,27.612c-1.464,0-2.906,0.182-4.286,0.541
			c-1.429,0.371-2.729,0.936-3.863,1.678c-1.204,0.786-2.182,1.776-2.901,2.942c-0.766,1.234-1.154,2.661-1.154,4.237
			c0,1.215,0.184,2.315,0.546,3.271c0.365,0.972,0.92,1.858,1.647,2.63c0.682,0.724,1.535,1.372,2.536,1.927
			c0.896,0.497,1.906,0.969,3.005,1.404c0.875,0.327,1.633,0.605,2.314,0.852c0.539,0.194,1.004,0.412,1.381,0.647
			c0.275,0.172,0.487,0.356,0.629,0.549c0.044,0.061,0.051,0.193,0.051,0.268c0,0.894-1.959,1.027-3.127,1.027
			c-2.125,0-4.021-0.657-5.794-2.008l-3.212-2.447v4.038v5.249v1.287l1.172,0.533c2.255,1.026,4.924,1.547,7.932,1.547
			c1.562,0,3.075-0.17,4.499-0.506c1.491-0.351,2.835-0.901,3.994-1.636c1.228-0.777,2.229-1.78,2.972-2.979
			c0.783-1.26,1.18-2.732,1.18-4.375c0-1.313-0.22-2.487-0.652-3.489c-0.429-0.998-1.049-1.891-1.841-2.652
			c-0.734-0.703-1.617-1.332-2.629-1.872c-0.923-0.491-1.958-0.972-3.078-1.431l-0.057-0.022l-0.058-0.02
			c-0.798-0.271-1.505-0.522-2.1-0.746c-0.495-0.188-0.915-0.389-1.244-0.599c-0.177-0.112-0.311-0.233-0.373-0.337
			c-0.021-0.034-0.053-0.137-0.053-0.331c0-0.081,0.017-0.115,0.037-0.147c0.072-0.116,0.183-0.22,0.336-0.318
			c0.222-0.142,0.521-0.262,0.89-0.355c0.413-0.105,0.901-0.158,1.448-0.158c1.883,0,3.493,0.477,4.925,1.457l3.13,2.144v-3.794
			v-4.956v-1.375l-1.283-0.492C520.934,28.01,518.605,27.612,516.061,27.612L516.061,27.612z"/>
	</g>
</g>
<g display="none">
	
		<rect x="232.219" y="25.883" transform="matrix(-0.7071 0.7071 -0.7071 -0.7071 447.0731 -106.6164)" display="inline" fill="#007E00" width="26.795" height="26.794"/>
	<path display="inline" fill="#0F0F19" d="M245.617,21.748l17.532,17.532l-17.532,17.532L228.084,39.28L245.617,21.748
		 M245.617,18.919l-1.414,1.415L226.67,37.866l-1.415,1.414l1.415,1.414l17.533,17.532l1.414,1.414l1.414-1.414l17.532-17.532
		l1.415-1.414l-1.415-1.414l-17.532-17.532L245.617,18.919L245.617,18.919z"/>
</g>
<circle fill="#33CC00" cx="163.468" cy="42.754" r="13.031"/>
<path fill="#3F3F3F" d="M45.316,25.121H32.23v10.522h12.061v4.908H32.23v14.648H26.42v-35.01h18.896V25.121z"/>
<path fill="#3F3F3F" d="M65.409,35.594c-0.684-0.537-1.669-0.806-2.954-0.806c-1.677,0-3.076,0.757-4.199,2.271
	c-1.123,1.513-1.685,3.572-1.685,6.177v11.963h-5.664v-25h5.664v5.151h0.098c0.553-1.758,1.403-3.129,2.551-4.114
	c1.147-0.984,2.43-1.477,3.846-1.477c1.025,0,1.807,0.155,2.344,0.464V35.594z"/>
<path fill="#3F3F3F" d="M90.141,44.236H73.1c0.064,2.313,0.776,4.094,2.136,5.348c1.359,1.252,3.227,1.879,5.604,1.879
	c2.669,0,5.118-0.797,7.349-2.393v4.566c-2.279,1.432-5.29,2.148-9.033,2.148c-3.679,0-6.563-1.137-8.655-3.406
	c-2.092-2.271-3.137-5.465-3.137-9.582c0-3.891,1.151-7.06,3.454-9.51c2.303-2.449,5.164-3.674,8.582-3.674s6.063,1.099,7.935,3.296
	c1.871,2.197,2.808,5.25,2.808,9.156V44.236z M84.672,40.232c-0.017-2.033-0.497-3.617-1.44-4.748
	c-0.944-1.131-2.246-1.697-3.906-1.697c-1.628,0-3.008,0.594-4.139,1.782c-1.131,1.188-1.827,2.743-2.087,4.663H84.672z"/>
<path fill="#3F3F3F" d="M116.703,44.236H99.662c0.064,2.313,0.777,4.094,2.137,5.348c1.358,1.252,3.226,1.879,5.603,1.879
	c2.669,0,5.118-0.797,7.349-2.393v4.566c-2.279,1.432-5.29,2.148-9.033,2.148c-3.679,0-6.563-1.137-8.654-3.406
	c-2.092-2.271-3.138-5.465-3.138-9.582c0-3.891,1.151-7.06,3.454-9.51c2.304-2.449,5.164-3.674,8.582-3.674s6.063,1.099,7.935,3.296
	c1.871,2.197,2.808,5.25,2.808,9.156V44.236z M111.234,40.232c-0.017-2.033-0.497-3.617-1.44-4.748
	c-0.944-1.131-2.246-1.697-3.906-1.697c-1.628,0-3.007,0.594-4.138,1.782c-1.132,1.188-1.828,2.743-2.088,4.663H111.234z"/>
<path fill="#3F3F3F" d="M144.828,55.199h-5.664v-4.248h-0.098c-1.823,3.223-4.631,4.834-8.423,4.834
	c-3.076,0-5.538-1.119-7.386-3.357c-1.847-2.238-2.771-5.285-2.771-9.143c0-4.135,1.021-7.447,3.063-9.937
	c2.043-2.49,4.765-3.735,8.167-3.735c3.369,0,5.818,1.351,7.349,4.053h0.098V18.187h5.664V55.199z M139.237,43.773v-3.271
	c0-1.775-0.578-3.28-1.733-4.517c-1.156-1.237-2.629-1.855-4.419-1.855c-2.116,0-3.78,0.789-4.993,2.368
	c-1.212,1.579-1.818,3.768-1.818,6.567c0,2.539,0.582,4.545,1.746,6.018c1.163,1.475,2.729,2.211,4.699,2.211
	c1.937,0,3.507-0.713,4.712-2.137C138.635,47.732,139.237,45.938,139.237,43.773z"/>
<path fill="#3F3F3F" d="M219.462,55.199h-5.664V41.576c0-2.621-0.37-4.517-1.111-5.689c-0.74-1.172-1.989-1.758-3.747-1.758
	c-1.481,0-2.738,0.74-3.772,2.222c-1.033,1.481-1.55,3.254-1.55,5.323v13.525h-5.688V41.111c0-4.654-1.645-6.982-4.932-6.982
	c-1.53,0-2.787,0.7-3.771,2.1c-0.985,1.4-1.478,3.214-1.478,5.445v13.525h-5.664v-25h5.664v3.955h0.098
	c1.807-3.027,4.435-4.541,7.886-4.541c1.725,0,3.234,0.476,4.529,1.428c1.293,0.952,2.176,2.202,2.648,3.748
	c1.855-3.45,4.622-5.176,8.301-5.176c5.501,0,8.252,3.394,8.252,10.18V55.199z"/>
<circle fill="#33CC00" cx="345.5" cy="42.754" r="13.031"/>
<path fill="#3F3F3F" d="M300.07,52.807c-3.646,1.984-7.707,2.979-12.184,2.979c-5.176,0-9.367-1.611-12.572-4.834
	c-3.207-3.223-4.81-7.488-4.81-12.793c0-5.42,1.754-9.868,5.261-13.343c3.508-3.475,7.963-5.212,13.367-5.212
	c3.889,0,7.16,0.57,9.814,1.709v5.981c-2.686-1.79-5.885-2.686-9.596-2.686c-3.727,0-6.783,1.229-9.166,3.687
	c-2.385,2.458-3.578,5.64-3.578,9.546c0,4.021,1.025,7.181,3.076,9.484c2.051,2.305,4.834,3.455,8.35,3.455
	c2.408,0,4.492-0.463,6.25-1.391v-8.326h-7.373V36.18h13.16V52.807z"/>
<path fill="#3F3F3F" d="M328.146,44.236h-17.041c0.064,2.313,0.777,4.094,2.137,5.348c1.357,1.252,3.225,1.879,5.602,1.879
	c2.67,0,5.119-0.797,7.35-2.393v4.566c-2.279,1.432-5.291,2.148-9.033,2.148c-3.68,0-6.564-1.137-8.654-3.406
	c-2.092-2.271-3.139-5.465-3.139-9.582c0-3.891,1.152-7.06,3.455-9.51c2.303-2.449,5.164-3.674,8.582-3.674s6.063,1.099,7.934,3.296
	s2.809,5.25,2.809,9.156V44.236z M322.678,40.232c-0.018-2.033-0.498-3.617-1.441-4.748c-0.943-1.131-2.246-1.697-3.906-1.697
	c-1.627,0-3.006,0.594-4.137,1.782c-1.133,1.188-1.828,2.743-2.088,4.663H322.678z"/>
<path fill="#3F3F3F" d="M400.777,55.199h-5.664V41.576c0-2.621-0.369-4.517-1.111-5.689c-0.74-1.172-1.988-1.758-3.746-1.758
	c-1.482,0-2.738,0.74-3.773,2.222c-1.033,1.481-1.549,3.254-1.549,5.323v13.525h-5.689V41.111c0-4.654-1.645-6.982-4.932-6.982
	c-1.529,0-2.787,0.7-3.771,2.1c-0.984,1.4-1.477,3.214-1.477,5.445v13.525H363.4v-25h5.664v3.955h0.098
	c1.807-3.027,4.434-4.541,7.885-4.541c1.725,0,3.234,0.476,4.529,1.428c1.293,0.952,2.176,2.202,2.648,3.748
	c1.855-3.45,4.623-5.176,8.301-5.176c5.502,0,8.252,3.394,8.252,10.18V55.199z"/>
<path fill="#3F3F3F" d="M428.854,44.236h-17.041c0.064,2.313,0.777,4.094,2.137,5.348c1.359,1.252,3.227,1.879,5.604,1.879
	c2.668,0,5.117-0.797,7.348-2.393v4.566c-2.279,1.432-5.289,2.148-9.033,2.148c-3.678,0-6.563-1.137-8.654-3.406
	c-2.092-2.271-3.137-5.465-3.137-9.582c0-3.891,1.15-7.06,3.453-9.51c2.305-2.449,5.164-3.674,8.582-3.674s6.063,1.099,7.936,3.296
	c1.871,2.197,2.807,5.25,2.807,9.156V44.236z M423.385,40.232c-0.016-2.033-0.496-3.617-1.439-4.748
	c-0.945-1.131-2.246-1.697-3.906-1.697c-1.629,0-3.008,0.594-4.139,1.782c-1.131,1.188-1.828,2.743-2.088,4.663H423.385z"/>
<path fill="#3F3F3F" d="M447.434,54.93c-1.107,0.553-2.564,0.83-4.371,0.83c-4.85,0-7.275-2.326-7.275-6.982V34.642h-4.174v-4.443
	h4.174v-5.786l5.664-1.611v7.397h5.982v4.443h-5.982v12.5c0,1.48,0.27,2.539,0.807,3.174s1.432,0.951,2.686,0.951
	c0.959,0,1.789-0.275,2.49-0.83V54.93z"/>
<path fill="#3F3F3F" d="M466.818,35.594c-0.684-0.537-1.67-0.806-2.955-0.806c-1.676,0-3.076,0.757-4.199,2.271
	c-1.123,1.513-1.684,3.572-1.684,6.177v11.963h-5.664v-25h5.664v5.151h0.098c0.553-1.758,1.402-3.129,2.551-4.114
	c1.146-0.984,2.43-1.477,3.846-1.477c1.025,0,1.807,0.155,2.344,0.464V35.594z"/>
<path fill="#3F3F3F" d="M473.678,24.95c-0.928,0-1.721-0.301-2.381-0.903c-0.658-0.602-0.988-1.367-0.988-2.295
	s0.33-1.701,0.988-2.319c0.66-0.618,1.453-0.928,2.381-0.928c0.961,0,1.773,0.31,2.441,0.928c0.668,0.619,1.002,1.392,1.002,2.319
	c0,0.879-0.334,1.632-1.002,2.258C475.451,24.637,474.639,24.95,473.678,24.95z M476.486,55.199h-5.664v-25h5.664V55.199z"/>
<path fill="#3F3F3F" d="M501.779,54.051c-2.002,1.156-4.371,1.734-7.105,1.734c-3.711,0-6.705-1.16-8.984-3.48
	c-2.279-2.318-3.418-5.326-3.418-9.02c0-4.119,1.225-7.426,3.676-9.925c2.449-2.498,5.725-3.748,9.826-3.748
	c2.277,0,4.287,0.399,6.029,1.196v5.273c-1.742-1.302-3.598-1.953-5.566-1.953c-2.393,0-4.354,0.811-5.883,2.43
	c-1.531,1.619-2.295,3.74-2.295,6.359c0,2.588,0.721,4.631,2.16,6.129c1.441,1.496,3.373,2.246,5.799,2.246
	c2.033,0,3.955-0.725,5.762-2.174V54.051z"/>
<path fill="#3F3F3F" d="M505.832,54.418v-5.25c2.115,1.611,4.451,2.418,7.006,2.418c3.418,0,5.127-1.01,5.127-3.027
	c0-0.57-0.146-1.055-0.439-1.453s-0.688-0.752-1.184-1.063c-0.496-0.309-1.082-0.586-1.758-0.83s-1.428-0.52-2.258-0.83
	c-1.025-0.406-1.949-0.838-2.771-1.293c-0.822-0.457-1.506-0.973-2.051-1.551s-0.957-1.232-1.232-1.965
	c-0.277-0.732-0.416-1.587-0.416-2.564c0-1.204,0.285-2.266,0.855-3.186c0.568-0.919,1.334-1.692,2.295-2.319
	c0.959-0.626,2.051-1.099,3.271-1.416s2.48-0.476,3.783-0.476c2.311,0,4.379,0.35,6.201,1.05v4.956
	c-1.758-1.204-3.775-1.807-6.055-1.807c-0.717,0-1.363,0.073-1.941,0.22c-0.576,0.146-1.07,0.35-1.477,0.61
	c-0.406,0.261-0.725,0.573-0.951,0.94c-0.229,0.365-0.342,0.769-0.342,1.208c0,0.537,0.113,0.993,0.342,1.368
	c0.227,0.373,0.564,0.703,1.012,0.988c0.449,0.285,0.986,0.545,1.611,0.781c0.627,0.236,1.348,0.492,2.162,0.77
	c1.074,0.439,2.037,0.887,2.893,1.342c0.854,0.457,1.582,0.973,2.186,1.551c0.602,0.578,1.064,1.244,1.391,2.002
	c0.326,0.756,0.488,1.656,0.488,2.697c0,1.27-0.293,2.377-0.879,3.32c-0.586,0.945-1.367,1.727-2.344,2.344
	c-0.977,0.619-2.104,1.078-3.381,1.379s-2.625,0.453-4.041,0.453C510.201,55.785,507.834,55.328,505.832,54.418z"/>
<polygon fill="#00FC00" points="263.149,39.28 245.618,21.748 245.618,39.28 "/>
<polygon fill="#00BD00" points="245.618,21.748 228.085,39.28 245.618,39.28 "/>
<polygon fill="#007E00" points="228.085,39.28 245.618,56.813 245.618,39.28 "/>
<polygon fill="#003F00" points="245.618,39.28 245.618,56.813 263.149,39.28 "/>
</svg>
